<?xml version="1.0" encoding="UTF-8" standalone="no"?>
<!-- Created with Inkscape (http://www.inkscape.org/) -->

<svg
   width="210mm"
   height="297mm"
   viewBox="0 0 210 297"
   version="1.1"
   id="svg1"
   inkscape:version="1.3 (0e150ed6c4, 2023-07-21)"
   sodipodi:docname="sparrow.svg"
   xmlns:inkscape="http://www.inkscape.org/namespaces/inkscape"
   xmlns:sodipodi="http://sodipodi.sourceforge.net/DTD/sodipodi-0.dtd"
   xmlns="http://www.w3.org/2000/svg"
   xmlns:svg="http://www.w3.org/2000/svg">
  <sodipodi:namedview
     id="namedview1"
     pagecolor="#ffffff"
     bordercolor="#000000"
     borderopacity="0.25"
     inkscape:showpageshadow="2"
     inkscape:pageopacity="0.0"
     inkscape:pagecheckerboard="0"
     inkscape:deskcolor="#d1d1d1"
     inkscape:document-units="mm"
     inkscape:zoom="3.0891678"
     inkscape:cx="139.51978"
     inkscape:cy="147.28886"
     inkscape:window-width="2560"
     inkscape:window-height="1523"
     inkscape:window-x="-11"
     inkscape:window-y="35"
     inkscape:window-maximized="1"
     inkscape:current-layer="layer2"
     showgrid="false" />
  <defs
     id="defs1" />
  <g
     inkscape:label="Layer 1"
     inkscape:groupmode="layer"
     id="layer1">
    <g
       inkscape:label="Layer 1 copy"
       inkscape:groupmode="layer"
       id="g12">
      <g
         id="g13"
         style="fill:#696969"
         inkscape:export-filename="rect2.png"
         inkscape:export-xdpi="33.759998"
         inkscape:export-ydpi="33.759998">
        <path
           id="rect5"
           style="fill:#696969;fill-opacity:1;stroke:none;stroke-width:0.202627"
           d="m 33.525466,42.29422 c -4.05657,2.045797 -8.111592,4.096749 -12.165875,6.148006 0.739965,1.517148 1.479267,3.034633 2.220538,4.55112 4.213732,-2.127411 8.426834,-4.256139 12.638621,-6.387538 -0.738705,-1.517123 -1.479196,-3.033348 -2.216613,-4.55112 -0.15889,0.07985 -0.31778,0.159687 -0.476671,0.239532 z" />
        <path
           id="rect6"
           style="fill:#696969;stroke:none;stroke-width:0.218211"
           d="m 33.963854,43.934948 c -4.127145,2.633168 -8.249973,5.275993 -12.374018,7.915245 0.946178,1.550236 1.896061,3.09812 2.846297,4.645764 4.287351,-2.738232 8.572049,-5.48082 12.856836,-8.223239 -0.946178,-1.550237 -1.896062,-3.098121 -2.846299,-4.645765 -0.160939,0.102666 -0.321877,0.20533 -0.482816,0.307995 z" />
        <path
           id="rect7"
           style="fill:#696969;stroke:none;stroke-width:0.205208"
           d="m 35.165341,45.425819 c -3.566151,2.933213 -7.131261,5.867744 -10.695797,8.802992 1.060587,1.333913 2.120371,2.668491 3.181334,4.002095 3.702872,-3.049186 7.408278,-6.095183 11.110841,-9.144757 -1.059584,-1.334325 -2.119379,-2.668478 -3.177363,-4.004118 -0.139671,0.114596 -0.279343,0.229192 -0.419015,0.343788 z" />
        <path
           id="rect10"
           style="fill:#696969;stroke:none;stroke-width:0.189154"
           d="m 49.110469,42.460528 c -1.146176,0.838076 -2.294666,1.67357 -3.440547,2.511976 2.931585,3.274287 5.859901,6.550961 8.791861,9.824973 1.282579,-0.937759 2.566469,-1.874056 3.848748,-2.81215 -2.931497,-3.273767 -5.859991,-6.549726 -8.791862,-9.823218 -0.136066,0.09947 -0.272133,0.198946 -0.4082,0.298419 z" />
        <path
           id="path10"
           style="fill:#696969;stroke:none;stroke-width:0.29301"
           d="m 53.347656,19.839844 c -6.658966,0.169534 -13.106832,3.934613 -16.453052,9.705794 -2.794992,4.722871 -3.514197,10.614293 -1.888161,15.861316 0.155549,0.597384 0.311831,1.194578 0.466213,1.792265 6.633737,-2.133335 13.268666,-4.262968 19.902344,-6.396485 0.752021,-6.927727 1.503642,-13.855497 2.255859,-20.783203 -1.431109,-0.05472 -2.841356,-0.198276 -4.283203,-0.179687 z" />
        <path
           id="circle10"
           style="fill:#696969;stroke:none;stroke-width:0.108276"
           d="m 37.257812,35.777344 c -3.915421,0.21939 -7.41022,3.553474 -7.700477,7.481906 -0.427278,3.800935 2.138793,7.680953 5.821585,8.738452 3.642612,1.176729 7.96831,-0.567671 9.726338,-3.98141 1.720742,-3.068407 1.192714,-7.20957 -1.306452,-9.704405 -1.662177,-1.759229 -4.124738,-2.726266 -6.540994,-2.534543 z" />
        <path
           id="path11"
           style="fill:#696969;fill-opacity:1;stroke:none;stroke-width:0.299014"
           d="m 58.527344,18.029297 c -0.84422,0.271304 -1.186307,1.241724 -1.736631,1.871266 -7.618132,10.69003 -15.249443,21.371682 -22.872744,32.058421 3.810623,0.616222 7.762718,1.091761 11.558607,0.13467 7.849269,-1.733419 14.48993,-8.023096 16.602984,-15.785126 1.654805,-5.858812 0.761439,-12.356964 -2.323701,-17.593684 -0.198924,-0.462466 -0.726831,-0.778903 -1.228515,-0.685547 z" />
        <path
           id="circle11"
           style="fill:#696969;stroke:none;stroke-width:0.2"
           d="m 53.277344,11.535156 c -4.017168,0.190748 -7.693161,3.26012 -8.540717,7.20286 -1.00426,4.112028 1.232072,8.728497 5.090402,10.47597 3.630483,1.740855 8.361154,0.804278 10.956023,-2.307328 2.741035,-3.057018 3.057382,-7.977916 0.680209,-11.337899 -1.787024,-2.636352 -5.001468,-4.240055 -8.185917,-4.033603 z" />
        <path
           id="circle12"
           style="fill:#696969;stroke:none;stroke-width:0.0184818"
           d="m 55.314453,16.041016 c -2.36907,-0.03422 -4.020795,3.014456 -2.664416,4.970278 1.128303,2.108327 4.645276,2.035709 5.669094,-0.13437 1.176087,-1.963733 -0.403488,-4.866011 -2.725381,-4.837862 -0.09295,0.0025 -0.186541,-0.0041 -0.279297,0.002 z" />
        <path
           id="rect12"
           style="fill:#696969;stroke:none;stroke-width:0.2"
           d="m 47.705078,50.703125 c -0.07556,1.481015 -0.148196,2.962188 -0.220703,4.443359 4.678264,0.232868 9.356738,0.461622 14.035156,0.691407 0.08407,-1.655496 0.165077,-3.311149 0.246094,-4.966797 -4.677632,-0.233793 -9.355418,-0.464601 -14.033203,-0.695313 -0.0091,0.175781 -0.01823,0.351563 -0.02734,0.527344 z" />
        <path
           id="path12"
           style="fill:#696969;fill-opacity:1;stroke:none;stroke-width:0.2"
           d="m 59.296875,19.736328 c -1.009534,1.193921 -1.370905,3.01653 -0.490234,4.384766 0.269623,0.470448 0.638485,0.857802 1.21956,0.65126 2.192451,-0.134188 4.384789,-0.27025 6.577315,-0.403213 -0.317541,-1.090183 0.598144,-2.393903 -0.333985,-3.3125 -0.613955,-0.536485 -1.544963,-0.421477 -2.293708,-0.679733 -1.494533,-0.319051 -2.989165,-0.637642 -4.483635,-0.956986 -0.0651,0.105469 -0.130209,0.210937 -0.195313,0.316406 z" />
      </g>
    </g>
    <rect
       style="fill:#3e85e2;stroke:none;stroke-width:0.2;fill-opacity:1"
       id="rect2"
       width="1.7986236"
       height="10.87739"
       x="54.379044"
       y="-10.163713"
       transform="rotate(63.588104)"
       inkscape:export-filename="rect2.png"
       inkscape:export-xdpi="33.759998"
       inkscape:export-ydpi="33.759998" />
    <rect
       style="fill:#d3d3d3;stroke:none;stroke-width:0.222975"
       id="rect3"
       width="2.0094969"
       height="12.101245"
       x="56.920235"
       y="-4.7821417"
       transform="matrix(0.5271507,0.84977182,-0.84513018,0.53456055,0,0)" />
    <rect
       style="fill:#d3d3d3;stroke:none;stroke-width:0.2"
       id="rect4"
       width="1.7986236"
       height="10.87739"
       x="59.049007"
       y="2.205328"
       transform="rotate(51.059419)" />
    <rect
       style="fill:#000080;stroke:none;stroke-width:0.2"
       id="rect8"
       width="1.7986236"
       height="10.87739"
       x="8.6454439"
       y="65.518349"
       transform="rotate(-38.940581)" />
    <path
       style="fill:#696969;stroke:none;stroke-width:0.29301"
       id="path2"
       sodipodi:type="arc"
       sodipodi:cx="53.910072"
       sodipodi:cy="39.606731"
       sodipodi:rx="18.19455"
       sodipodi:ry="18.19455"
       sodipodi:start="2.8307285"
       sodipodi:end="4.8204611"
       sodipodi:arc-type="slice"
       d="m 36.587595,45.172107 a 18.19455,18.19455 0 0 1 3.220792,-17.06251 18.19455,18.19455 0 0 1 16.064183,-6.591266 l -1.962498,18.0884 z" />
    <circle
       style="fill:#696969;stroke:none;stroke-width:0.108276"
       id="circle2"
       cx="37.813915"
       cy="44.066277"
       r="6.7234263" />
    <path
       style="fill:#353535;stroke:none;stroke-width:0.299014;fill-opacity:1"
       id="path6"
       sodipodi:type="arc"
       sodipodi:cx="40.483192"
       sodipodi:cy="30.247934"
       sodipodi:rx="20.835812"
       sodipodi:ry="20.835812"
       sodipodi:start="5.771191"
       sodipodi:end="1.7517305"
       sodipodi:arc-type="arc"
       d="M 58.647211,20.04012 A 20.835812,20.835812 0 0 1 57.442607,42.352037 20.835812,20.835812 0 0 1 36.733818,50.743623"
       sodipodi:open="true" />
    <circle
       style="fill:#c0c0c0;stroke:none;stroke-width:0.2"
       id="path1"
       cx="53.787411"
       cy="20.812645"
       r="7.7083864" />
    <circle
       style="fill:#000000;stroke:none;stroke-width:0.0184818"
       id="path7"
       cx="55.438465"
       cy="19.311752"
       r="1.692072" />
    <rect
       style="fill:#000080;stroke:none;stroke-width:0.2"
       id="rect9"
       width="1.7986236"
       height="10.87739"
       x="-51.145924"
       y="51.735981"
       transform="rotate(-87.171578)" />
    <path
       style="fill:#000000;fill-opacity:1;stroke:none;stroke-width:0.2"
       d="m 60.25389,21.207823 c -0.781545,1.145553 -0.124803,1.970552 -0.124803,1.970552 l 4.894205,-0.303573 0.07794,-0.633089 z"
       id="path9"
       sodipodi:nodetypes="ccccc" />
  </g>
  <g
     inkscape:groupmode="layer"
     id="layer2"
     inkscape:label="Layer 2"
     style="display:none">
    <rect
       style="fill:none;stroke:#000000;stroke-width:0.190737"
       id="rect1"
       width="51.0513"
       height="51.0513"
       x="19.071733"
       y="9.7983665"
       inkscape:export-filename="rect1.png"
       inkscape:export-xdpi="126.89581"
       inkscape:export-ydpi="126.89581" />
  </g>
</svg>
